<?xml version="1.0" standalone="no"?>
<!DOCTYPE svg PUBLIC "-//W3C//DTD SVG 20010904//EN"
 "http://www.w3.org/TR/2001/REC-SVG-20010904/DTD/svg10.dtd">
<svg version="1.0" xmlns="http://www.w3.org/2000/svg"
 width="6000.000000pt" height="1150.000000pt" viewBox="0 0 6000.000000 1150.000000"
 preserveAspectRatio="xMidYMid meet">

<g transform="translate(0.000000,1150.000000) scale(0.100000,-0.100000)"
fill="#000000" stroke="none">
<path d="M12015 10320 c-132 -23 -205 -43 -317 -86 -528 -201 -923 -683 -1019
-1242 -24 -142 -25 -371 -3 -519 77 -522 413 -981 889 -1214 182 -89 323 -129
585 -167 l65 -9 -50 -2 c-174 -5 -418 -73 -610 -169 -438 -218 -745 -610 -862
-1102 -34 -144 -43 -423 -19 -588 52 -350 211 -665 462 -916 128 -128 254
-219 419 -301 192 -96 272 -119 595 -173 29 -5 23 -7 -40 -14 -385 -41 -725
-209 -1001 -495 -317 -329 -473 -751 -447 -1214 19 -339 140 -652 357 -921
144 -179 359 -346 581 -452 187 -88 355 -135 565 -156 79 -8 1254 -10 4122 -8
l4011 3 44 30 c67 48 89 95 86 182 -3 63 -7 76 -34 110 -17 21 -48 48 -70 60
l-39 23 -3995 0 c-2617 0 -4032 4 -4102 10 -569 54 -1012 466 -1104 1028 -23
138 -14 344 19 473 120 461 488 810 950 900 95 18 181 19 2907 19 l2810 0 2
-959 3 -958 105 90 c58 50 237 205 398 344 l292 254 398 -344 397 -344 3 958
2 958 458 3 457 3 47 28 c29 17 57 44 73 71 l25 43 0 267 c0 243 -2 270 -19
304 -24 47 -56 77 -103 97 -32 13 -104 15 -488 15 l-450 0 0 1215 0 1214 464
3 464 3 44 30 c23 17 53 49 65 70 22 39 23 49 23 308 0 244 -2 271 -19 305
-24 47 -56 77 -103 97 -32 13 -104 15 -488 15 l-450 0 0 875 0 875 -800 0
-800 0 0 -875 0 -875 -2792 0 c-3061 0 -2874 -4 -3066 59 -177 58 -321 144
-456 272 -252 237 -386 547 -386 890 0 510 340 982 826 1145 189 63 -187 58
4311 64 l4091 5 44 30 c59 43 88 96 88 167 0 31 -4 68 -9 81 -15 39 -71 97
-109 112 -30 13 -568 15 -4116 14 -3878 -1 -4086 -2 -4181 -19z m5755 -4865
l0 -1215 -2768 0 c-1839 0 -2795 3 -2850 10 -273 35 -525 155 -716 343 -168
166 -271 347 -333 586 -34 132 -42 346 -19 481 77 437 386 801 803 945 194 67
-25 63 3071 64 l2812 1 0 -1215z"/>
<path d="M28705 8361 c-225 -26 -372 -107 -433 -239 -25 -53 -27 -66 -27 -197
0 -139 0 -141 33 -207 55 -112 149 -172 330 -211 142 -30 502 -30 645 1 175
37 282 104 331 205 81 167 42 423 -78 522 -56 46 -154 89 -246 110 -86 19
-441 29 -555 16z"/>
<path d="M26995 7967 l-550 -51 0 -2203 0 -2203 574 0 574 0 -7 188 c-9 246
-9 3686 0 4045 l7 277 -24 -1 c-13 -1 -271 -24 -574 -52z"/>
<path d="M30880 7966 l-555 -51 5 -575 c8 -871 6 -2446 -3 -3177 l-8 -653 490
0 c270 0 491 2 491 5 0 49 83 822 89 828 5 5 21 7 36 5 23 -3 31 -12 50 -63
100 -267 307 -516 543 -654 289 -168 683 -230 1027 -160 546 111 890 550 1014
1294 74 449 60 1087 -34 1510 -134 603 -427 955 -888 1065 -300 72 -659 39
-952 -88 -323 -140 -580 -403 -709 -724 -13 -34 -19 -38 -50 -38 -19 0 -37 3
-40 8 -2 4 4 59 15 122 49 299 60 413 65 695 2 154 6 376 8 493 3 210 3 212
-18 211 -12 -1 -271 -25 -576 -53z m1595 -1498 c64 -16 151 -67 208 -122 339
-330 394 -1243 110 -1857 -31 -68 -41 -79 -91 -110 -133 -81 -271 -120 -422
-121 -108 0 -164 11 -268 53 -301 120 -511 436 -552 830 -13 127 -13 299 0
549 l11 194 35 65 c74 134 220 299 335 378 188 130 448 187 634 141z"/>
<path d="M23663 7375 c-430 -56 -740 -184 -995 -411 -189 -169 -342 -411 -426
-674 -36 -114 -82 -325 -82 -380 0 -36 2 -39 33 -45 61 -10 982 -144 1017
-147 l34 -3 8 55 c28 200 90 419 156 550 33 66 45 80 101 117 79 52 215 102
297 110 77 7 236 -12 317 -39 212 -69 347 -209 415 -430 30 -96 51 -249 58
-432 l7 -158 -49 6 c-128 15 -604 28 -844 23 -353 -8 -576 -40 -815 -118 -436
-142 -700 -393 -791 -749 -28 -111 -26 -383 4 -495 49 -182 168 -364 311 -476
85 -67 238 -146 351 -183 277 -89 654 -85 940 10 371 124 666 403 841 794 l47
105 41 3 40 3 -5 -33 c-5 -35 -84 -842 -84 -858 0 -6 208 -10 571 -10 l571 0
-7 1063 c-8 1333 -14 1459 -86 1739 -72 277 -180 483 -341 647 -229 234 -534
367 -954 416 -158 18 -536 18 -681 0z m840 -2292 l107 -6 0 -90 0 -89 -45 -64
c-271 -379 -673 -598 -1019 -556 -179 22 -272 76 -327 188 -28 56 -34 80 -37
153 -3 71 0 96 19 146 66 176 291 284 658 314 123 10 506 13 644 4z"/>
<path d="M40070 7374 c-576 -77 -967 -297 -1227 -692 -131 -198 -233 -489
-268 -758 l-7 -52 39 -6 c101 -17 1048 -154 1049 -153 1 1 12 58 23 127 27
163 63 290 118 422 54 129 78 155 198 213 157 76 246 89 422 60 242 -39 393
-143 486 -335 72 -148 102 -309 109 -585 l3 -120 -75 3 c-41 1 -163 7 -270 12
-256 13 -605 13 -765 0 -784 -64 -1269 -366 -1384 -862 -28 -119 -34 -218 -21
-341 40 -391 277 -674 675 -806 288 -96 669 -92 961 9 197 68 373 180 520 333
142 146 252 311 325 487 l33 80 38 0 c33 0 38 -3 38 -22 -1 -13 -20 -214 -43
-447 -29 -286 -40 -424 -33 -427 6 -2 263 -3 571 -2 l560 3 -3 785 c-6 1156
-16 1614 -41 1777 -97 641 -380 1016 -907 1206 -95 34 -286 74 -443 92 -160
19 -536 18 -681 -1z m853 -2291 l97 -6 0 -95 0 -94 -46 -64 c-63 -89 -199
-230 -295 -305 -233 -185 -489 -269 -726 -240 -220 26 -330 124 -354 311 -30
244 123 394 473 461 62 12 156 25 208 29 125 9 519 12 643 3z"/>
<path d="M36979 7365 c-326 -51 -582 -185 -811 -423 -109 -114 -179 -215 -246
-355 -47 -97 -47 -97 -82 -95 -31 3 -35 6 -33 28 4 40 103 722 109 753 l6 27
-583 0 -582 0 6 -132 c15 -289 20 -2203 8 -2912 -7 -396 -13 -724 -14 -730 -1
-8 170 -12 582 -14 l584 -2 -8 102 c-4 57 -11 472 -14 923 -5 623 -3 891 7
1115 l13 295 47 70 c68 102 261 293 349 344 133 78 248 107 363 91 236 -33
352 -226 390 -650 5 -63 10 -154 10 -202 0 -84 1 -88 22 -88 24 0 1024 107
1073 115 l31 5 -18 208 c-71 830 -227 1240 -544 1426 -171 101 -422 138 -665
101z"/>
<path d="M45165 7374 c-369 -57 -600 -169 -836 -404 -127 -127 -214 -248 -282
-392 -42 -88 -42 -89 -77 -86 -28 2 -35 7 -33 23 7 52 104 724 109 753 l6 32
-581 0 -582 0 8 -177 c10 -240 10 -2685 0 -3200 l-8 -413 582 0 581 0 -6 93
c-3 50 -9 477 -12 947 -7 937 3 1370 34 1420 44 70 149 195 226 268 175 165
349 236 523 211 253 -36 370 -268 390 -771 l6 -168 26 0 c40 1 1092 117 1095
121 5 7 -23 322 -44 494 -96 770 -320 1139 -748 1231 -68 14 -321 26 -377 18z"/>
<path d="M46395 7268 c33 -150 193 -732 515 -1873 137 -484 271 -965 300
-1070 28 -104 56 -205 62 -224 l10 -33 297 5 c211 3 319 9 376 20 146 29 233
62 301 113 39 30 119 35 111 7 -2 -10 -30 -112 -61 -228 -31 -115 -64 -234
-72 -262 l-15 -53 -648 0 -647 0 -50 -434 -49 -434 55 -11 c303 -58 1147 -80
1415 -36 393 63 625 208 798 500 111 188 180 380 277 765 34 135 127 495 206
800 396 1515 453 1740 619 2458 l5 22 -598 0 -599 0 -17 -82 c-32 -149 -142
-613 -291 -1223 -182 -746 -310 -1281 -325 -1362 l-13 -63 -43 0 c-32 0 -44 4
-48 18 -3 9 -48 181 -100 382 -52 201 -149 572 -216 825 -94 360 -348 1360
-375 1483 l-5 22 -591 0 -591 0 7 -32z"/>
<path d="M28353 7177 c-3 -4 -2 -43 2 -85 21 -249 21 -3116 0 -3474 l-7 -108
579 0 578 0 0 1839 0 1840 -25 -5 c-49 -7 -278 -24 -425 -29 -136 -6 -419 5
-618 23 -43 4 -81 4 -84 -1z"/>
</g>
</svg>
